<svg width="410" height="278" viewBox="0 0 410 278" fill="none" xmlns="http://www.w3.org/2000/svg">
<rect width="410" height="278" fill="white"/>
<ellipse cx="205.5" cy="95" rx="152.5" ry="49" fill="#C4C4C4"/>
<path d="M112.62 111.856C112.62 112.324 112.734 112.732 112.962 113.08C113.19 113.428 113.466 113.722 113.79 113.962C114.114 114.19 114.57 114.484 115.158 114.844C115.782 115.216 116.268 115.528 116.616 115.78C116.964 116.032 117.258 116.356 117.498 116.752C117.75 117.136 117.876 117.598 117.876 118.138C117.876 118.714 117.732 119.236 117.444 119.704C117.156 120.172 116.73 120.544 116.166 120.82C115.614 121.084 114.948 121.216 114.168 121.216C113.244 121.216 112.398 121.006 111.63 120.586C111.57 120.55 111.528 120.508 111.504 120.46C111.492 120.412 111.48 120.34 111.468 120.244L111.234 117.796C111.222 117.748 111.246 117.718 111.306 117.706C111.378 117.694 111.42 117.712 111.432 117.76C111.624 118.624 111.978 119.368 112.494 119.992C113.022 120.616 113.718 120.928 114.582 120.928C115.182 120.928 115.686 120.766 116.094 120.442C116.514 120.106 116.724 119.578 116.724 118.858C116.724 118.318 116.604 117.85 116.364 117.454C116.124 117.058 115.83 116.734 115.482 116.482C115.146 116.218 114.684 115.912 114.096 115.564C113.52 115.216 113.064 114.916 112.728 114.664C112.404 114.412 112.128 114.094 111.9 113.71C111.672 113.326 111.558 112.876 111.558 112.36C111.558 111.76 111.714 111.25 112.026 110.83C112.35 110.398 112.764 110.08 113.268 109.876C113.784 109.66 114.33 109.552 114.906 109.552C115.614 109.552 116.316 109.696 117.012 109.984C117.192 110.044 117.282 110.146 117.282 110.29L117.408 112.36C117.408 112.408 117.378 112.432 117.318 112.432C117.258 112.432 117.222 112.408 117.21 112.36C117.114 111.736 116.856 111.16 116.436 110.632C116.016 110.092 115.41 109.822 114.618 109.822C113.946 109.822 113.442 110.02 113.106 110.416C112.782 110.8 112.62 111.28 112.62 111.856ZM124.45 120.064C124.498 120.064 124.534 120.094 124.558 120.154C124.582 120.202 124.576 120.238 124.54 120.262C124.096 120.61 123.694 120.856 123.334 121C122.986 121.144 122.62 121.216 122.236 121.216C121.732 121.216 121.318 121.102 120.994 120.874C120.67 120.646 120.508 120.268 120.508 119.74V115.51C120.508 115.198 120.484 114.976 120.436 114.844C120.4 114.712 120.322 114.628 120.202 114.592C120.082 114.544 119.878 114.52 119.59 114.52C119.542 114.52 119.518 114.484 119.518 114.412C119.518 114.328 119.542 114.286 119.59 114.286C120.07 114.274 120.46 114.148 120.76 113.908C121.06 113.656 121.234 113.326 121.282 112.918C121.282 112.882 121.33 112.864 121.426 112.864C121.51 112.864 121.552 112.882 121.552 112.918V114.25C122.152 114.238 122.986 114.178 124.054 114.07C124.078 114.07 124.102 114.118 124.126 114.214C124.162 114.298 124.18 114.394 124.18 114.502C124.18 114.598 124.156 114.7 124.108 114.808C124.072 114.904 124.03 114.946 123.982 114.934C123.322 114.766 122.512 114.67 121.552 114.646V119.128C121.552 119.62 121.672 119.986 121.912 120.226C122.164 120.466 122.518 120.586 122.974 120.586C123.526 120.586 124.006 120.418 124.414 120.082L124.45 120.064ZM132.692 114.052C132.728 114.052 132.746 114.088 132.746 114.16C132.746 114.232 132.728 114.268 132.692 114.268C132.392 114.268 132.134 114.376 131.918 114.592C131.702 114.808 131.498 115.162 131.306 115.654L129.11 121.504C128.666 122.668 128.246 123.574 127.85 124.222C127.466 124.882 127.064 125.35 126.644 125.626C126.236 125.914 125.762 126.058 125.222 126.058C124.958 126.058 124.742 125.998 124.574 125.878C124.394 125.758 124.304 125.584 124.304 125.356C124.304 125.188 124.358 125.056 124.466 124.96C124.574 124.864 124.706 124.816 124.862 124.816C125.018 124.816 125.15 124.834 125.258 124.87C125.366 124.906 125.48 124.966 125.6 125.05C125.624 125.062 125.69 125.098 125.798 125.158C125.918 125.218 126.062 125.248 126.23 125.248C126.518 125.248 126.788 125.122 127.04 124.87C127.304 124.618 127.58 124.192 127.868 123.592C128.168 123.004 128.516 122.188 128.912 121.144L126.176 115.546C125.9 115.018 125.69 114.676 125.546 114.52C125.402 114.352 125.216 114.268 124.988 114.268C124.964 114.268 124.952 114.232 124.952 114.16C124.952 114.088 124.964 114.052 124.988 114.052L125.6 114.07C125.744 114.082 125.942 114.088 126.194 114.088L127.346 114.07C127.514 114.058 127.748 114.052 128.048 114.052C128.072 114.052 128.084 114.088 128.084 114.16C128.084 114.232 128.072 114.268 128.048 114.268C127.352 114.268 127.004 114.406 127.004 114.682C127.004 114.754 127.034 114.85 127.094 114.97L129.47 119.848L130.91 115.708C131.006 115.42 131.054 115.192 131.054 115.024C131.054 114.748 130.946 114.556 130.73 114.448C130.514 114.328 130.16 114.268 129.668 114.268C129.644 114.268 129.632 114.232 129.632 114.16C129.632 114.088 129.644 114.052 129.668 114.052C129.992 114.052 130.238 114.058 130.406 114.07L131.486 114.088L132.134 114.07C132.254 114.058 132.44 114.052 132.692 114.052ZM133.476 121C133.44 121 133.422 120.964 133.422 120.892C133.422 120.82 133.44 120.784 133.476 120.784C133.8 120.784 134.04 120.754 134.196 120.694C134.352 120.622 134.46 120.502 134.52 120.334C134.58 120.154 134.61 119.89 134.61 119.542V110.236C134.61 109.804 134.568 109.492 134.484 109.3C134.4 109.108 134.25 109.012 134.034 109.012C133.854 109.012 133.578 109.096 133.206 109.264H133.17C133.134 109.264 133.104 109.234 133.08 109.174C133.068 109.114 133.08 109.078 133.116 109.066L135.42 107.968C135.444 107.956 135.474 107.95 135.51 107.95C135.534 107.95 135.564 107.968 135.6 108.004C135.648 108.028 135.672 108.058 135.672 108.094V119.542C135.672 119.89 135.696 120.148 135.744 120.316C135.804 120.484 135.912 120.604 136.068 120.676C136.224 120.748 136.464 120.784 136.788 120.784C136.824 120.784 136.842 120.82 136.842 120.892C136.842 120.964 136.824 121 136.788 121C136.524 121 136.308 120.994 136.14 120.982L135.132 120.964L134.16 120.982C133.992 120.994 133.764 121 133.476 121ZM143.949 119.992C143.985 119.992 144.015 120.016 144.039 120.064C144.075 120.1 144.081 120.136 144.057 120.172C143.241 120.868 142.365 121.216 141.429 121.216C140.721 121.216 140.109 121.054 139.593 120.73C139.077 120.406 138.687 119.986 138.423 119.47C138.171 118.942 138.045 118.372 138.045 117.76C138.045 117.04 138.213 116.386 138.549 115.798C138.897 115.21 139.365 114.748 139.953 114.412C140.541 114.064 141.195 113.89 141.915 113.89C142.563 113.89 143.067 114.052 143.427 114.376C143.787 114.688 143.967 115.12 143.967 115.672C143.967 115.816 143.949 115.924 143.913 115.996C143.889 116.056 143.835 116.086 143.751 116.086L139.323 116.122C139.263 116.446 139.233 116.758 139.233 117.058C139.233 118.102 139.485 118.954 139.989 119.614C140.493 120.262 141.189 120.586 142.077 120.586C142.761 120.586 143.379 120.388 143.931 119.992H143.949ZM141.303 114.25C140.811 114.25 140.397 114.394 140.061 114.682C139.737 114.958 139.509 115.354 139.377 115.87L142.725 115.798C142.725 115.306 142.593 114.928 142.329 114.664C142.077 114.388 141.735 114.25 141.303 114.25Z" fill="black"/>
<path d="M252.052 109.552C252.628 109.552 253.21 109.606 253.798 109.714C254.386 109.822 254.854 109.978 255.202 110.182C255.31 110.23 255.376 110.284 255.4 110.344C255.436 110.392 255.46 110.482 255.472 110.614L255.67 112.63C255.67 112.666 255.64 112.69 255.58 112.702C255.52 112.702 255.484 112.684 255.472 112.648C255.208 111.724 254.716 111.046 253.996 110.614C253.288 110.17 252.406 109.948 251.35 109.948C250.438 109.948 249.64 110.152 248.956 110.56C248.272 110.956 247.744 111.52 247.372 112.252C247 112.984 246.814 113.83 246.814 114.79C246.814 115.906 247.042 116.938 247.498 117.886C247.966 118.834 248.59 119.584 249.37 120.136C250.162 120.688 251.014 120.964 251.926 120.964C252.79 120.964 253.54 120.73 254.176 120.262C254.812 119.782 255.298 119.05 255.634 118.066C255.634 118.03 255.658 118.012 255.706 118.012C255.742 118.012 255.772 118.018 255.796 118.03C255.832 118.042 255.85 118.06 255.85 118.084L255.598 120.118C255.574 120.262 255.544 120.358 255.508 120.406C255.484 120.442 255.418 120.484 255.31 120.532C254.23 120.988 253.09 121.216 251.89 121.216C250.45 121.216 249.244 120.928 248.272 120.352C247.312 119.764 246.604 119.02 246.148 118.12C245.692 117.22 245.464 116.272 245.464 115.276C245.464 114.172 245.77 113.182 246.382 112.306C246.994 111.43 247.804 110.752 248.812 110.272C249.82 109.792 250.9 109.552 252.052 109.552ZM260.781 121.234C260.085 121.234 259.467 121.066 258.927 120.73C258.399 120.382 257.991 119.92 257.703 119.344C257.415 118.756 257.271 118.12 257.271 117.436C257.271 116.656 257.457 115.996 257.829 115.456C258.213 114.904 258.699 114.496 259.287 114.232C259.887 113.956 260.493 113.818 261.105 113.818C261.813 113.818 262.431 113.992 262.959 114.34C263.487 114.688 263.889 115.15 264.165 115.726C264.453 116.29 264.597 116.89 264.597 117.526C264.597 118.27 264.423 118.924 264.075 119.488C263.727 120.04 263.259 120.472 262.671 120.784C262.095 121.084 261.465 121.234 260.781 121.234ZM261.303 120.892C261.963 120.892 262.473 120.658 262.833 120.19C263.193 119.722 263.373 119.002 263.373 118.03C263.373 117.286 263.247 116.62 262.995 116.032C262.755 115.444 262.419 114.988 261.987 114.664C261.555 114.328 261.063 114.16 260.511 114.16C259.863 114.16 259.359 114.394 258.999 114.862C258.651 115.33 258.477 116.002 258.477 116.878C258.477 117.61 258.597 118.282 258.837 118.894C259.077 119.506 259.413 119.992 259.845 120.352C260.277 120.712 260.763 120.892 261.303 120.892ZM274.147 120.784C274.183 120.784 274.201 120.82 274.201 120.892C274.201 120.964 274.183 121 274.147 121C273.871 121 273.655 120.994 273.499 120.982L272.527 120.964L271.537 120.982C271.381 120.994 271.165 121 270.889 121C270.853 121 270.835 120.964 270.835 120.892C270.835 120.82 270.853 120.784 270.889 120.784C271.213 120.784 271.453 120.754 271.609 120.694C271.765 120.622 271.867 120.502 271.915 120.334C271.975 120.166 272.005 119.902 272.005 119.542V116.626C272.005 115.918 271.867 115.396 271.591 115.06C271.327 114.724 270.913 114.556 270.349 114.556C269.977 114.556 269.599 114.658 269.215 114.862C268.843 115.054 268.501 115.324 268.189 115.672V119.542C268.189 119.902 268.213 120.166 268.261 120.334C268.321 120.502 268.429 120.622 268.585 120.694C268.741 120.754 268.981 120.784 269.305 120.784C269.341 120.784 269.359 120.82 269.359 120.892C269.359 120.964 269.341 121 269.305 121C269.029 121 268.813 120.994 268.657 120.982L267.685 120.964L266.695 120.982C266.539 120.994 266.323 121 266.047 121C266.011 121 265.993 120.964 265.993 120.892C265.993 120.82 266.011 120.784 266.047 120.784C266.371 120.784 266.611 120.754 266.767 120.694C266.923 120.622 267.025 120.502 267.073 120.334C267.133 120.166 267.163 119.902 267.163 119.542V115.978C267.163 115.57 267.115 115.276 267.019 115.096C266.923 114.916 266.761 114.826 266.533 114.826C266.341 114.826 266.017 114.916 265.561 115.096H265.525C265.477 115.096 265.441 115.072 265.417 115.024C265.405 114.964 265.423 114.922 265.471 114.898L267.559 113.908C267.583 113.896 267.619 113.89 267.667 113.89C267.775 113.89 267.889 114.028 268.009 114.304C268.129 114.58 268.189 114.934 268.189 115.366C268.645 114.838 269.095 114.448 269.539 114.196C269.995 113.944 270.463 113.818 270.943 113.818C271.615 113.818 272.131 114.004 272.491 114.376C272.851 114.748 273.031 115.294 273.031 116.014V119.542C273.031 119.902 273.055 120.166 273.103 120.334C273.163 120.502 273.271 120.622 273.427 120.694C273.583 120.754 273.823 120.784 274.147 120.784ZM280.133 120.064C280.181 120.064 280.217 120.094 280.241 120.154C280.265 120.202 280.259 120.238 280.223 120.262C279.779 120.61 279.377 120.856 279.017 121C278.669 121.144 278.303 121.216 277.919 121.216C277.415 121.216 277.001 121.102 276.677 120.874C276.353 120.646 276.191 120.268 276.191 119.74V115.51C276.191 115.198 276.167 114.976 276.119 114.844C276.083 114.712 276.005 114.628 275.885 114.592C275.765 114.544 275.561 114.52 275.273 114.52C275.225 114.52 275.201 114.484 275.201 114.412C275.201 114.328 275.225 114.286 275.273 114.286C275.753 114.274 276.143 114.148 276.443 113.908C276.743 113.656 276.917 113.326 276.965 112.918C276.965 112.882 277.013 112.864 277.109 112.864C277.193 112.864 277.235 112.882 277.235 112.918V114.25C277.835 114.238 278.669 114.178 279.737 114.07C279.761 114.07 279.785 114.118 279.809 114.214C279.845 114.298 279.863 114.394 279.863 114.502C279.863 114.598 279.839 114.7 279.791 114.808C279.755 114.904 279.713 114.946 279.665 114.934C279.005 114.766 278.195 114.67 277.235 114.646V119.128C277.235 119.62 277.355 119.986 277.595 120.226C277.847 120.466 278.201 120.586 278.657 120.586C279.209 120.586 279.689 120.418 280.097 120.082L280.133 120.064ZM287.169 119.992C287.205 119.992 287.235 120.016 287.259 120.064C287.295 120.1 287.301 120.136 287.277 120.172C286.461 120.868 285.585 121.216 284.649 121.216C283.941 121.216 283.329 121.054 282.813 120.73C282.297 120.406 281.907 119.986 281.643 119.47C281.391 118.942 281.265 118.372 281.265 117.76C281.265 117.04 281.433 116.386 281.769 115.798C282.117 115.21 282.585 114.748 283.173 114.412C283.761 114.064 284.415 113.89 285.135 113.89C285.783 113.89 286.287 114.052 286.647 114.376C287.007 114.688 287.187 115.12 287.187 115.672C287.187 115.816 287.169 115.924 287.133 115.996C287.109 116.056 287.055 116.086 286.971 116.086L282.543 116.122C282.483 116.446 282.453 116.758 282.453 117.058C282.453 118.102 282.705 118.954 283.209 119.614C283.713 120.262 284.409 120.586 285.297 120.586C285.981 120.586 286.599 120.388 287.151 119.992H287.169ZM284.523 114.25C284.031 114.25 283.617 114.394 283.281 114.682C282.957 114.958 282.729 115.354 282.597 115.87L285.945 115.798C285.945 115.306 285.813 114.928 285.549 114.664C285.297 114.388 284.955 114.25 284.523 114.25ZM296.875 120.784C296.911 120.784 296.929 120.82 296.929 120.892C296.929 120.964 296.911 121 296.875 121C296.599 121 296.383 120.994 296.227 120.982L295.255 120.964L294.265 120.982C294.109 120.994 293.893 121 293.617 121C293.581 121 293.563 120.964 293.563 120.892C293.563 120.82 293.581 120.784 293.617 120.784C293.941 120.784 294.181 120.754 294.337 120.694C294.493 120.622 294.595 120.502 294.643 120.334C294.703 120.166 294.733 119.902 294.733 119.542V116.626C294.733 115.918 294.595 115.396 294.319 115.06C294.055 114.724 293.641 114.556 293.077 114.556C292.705 114.556 292.327 114.658 291.943 114.862C291.571 115.054 291.229 115.324 290.917 115.672V119.542C290.917 119.902 290.941 120.166 290.989 120.334C291.049 120.502 291.157 120.622 291.313 120.694C291.469 120.754 291.709 120.784 292.033 120.784C292.069 120.784 292.087 120.82 292.087 120.892C292.087 120.964 292.069 121 292.033 121C291.757 121 291.541 120.994 291.385 120.982L290.413 120.964L289.423 120.982C289.267 120.994 289.051 121 288.775 121C288.739 121 288.721 120.964 288.721 120.892C288.721 120.82 288.739 120.784 288.775 120.784C289.099 120.784 289.339 120.754 289.495 120.694C289.651 120.622 289.753 120.502 289.801 120.334C289.861 120.166 289.891 119.902 289.891 119.542V115.978C289.891 115.57 289.843 115.276 289.747 115.096C289.651 114.916 289.489 114.826 289.261 114.826C289.069 114.826 288.745 114.916 288.289 115.096H288.253C288.205 115.096 288.169 115.072 288.145 115.024C288.133 114.964 288.151 114.922 288.199 114.898L290.287 113.908C290.311 113.896 290.347 113.89 290.395 113.89C290.503 113.89 290.617 114.028 290.737 114.304C290.857 114.58 290.917 114.934 290.917 115.366C291.373 114.838 291.823 114.448 292.267 114.196C292.723 113.944 293.191 113.818 293.671 113.818C294.343 113.818 294.859 114.004 295.219 114.376C295.579 114.748 295.759 115.294 295.759 116.014V119.542C295.759 119.902 295.783 120.166 295.831 120.334C295.891 120.502 295.999 120.622 296.155 120.694C296.311 120.754 296.551 120.784 296.875 120.784ZM302.862 120.064C302.91 120.064 302.946 120.094 302.97 120.154C302.994 120.202 302.988 120.238 302.952 120.262C302.508 120.61 302.106 120.856 301.746 121C301.398 121.144 301.032 121.216 300.648 121.216C300.144 121.216 299.73 121.102 299.406 120.874C299.082 120.646 298.92 120.268 298.92 119.74V115.51C298.92 115.198 298.896 114.976 298.848 114.844C298.812 114.712 298.734 114.628 298.614 114.592C298.494 114.544 298.29 114.52 298.002 114.52C297.954 114.52 297.93 114.484 297.93 114.412C297.93 114.328 297.954 114.286 298.002 114.286C298.482 114.274 298.872 114.148 299.172 113.908C299.472 113.656 299.646 113.326 299.694 112.918C299.694 112.882 299.742 112.864 299.838 112.864C299.922 112.864 299.964 112.882 299.964 112.918V114.25C300.564 114.238 301.398 114.178 302.466 114.07C302.49 114.07 302.514 114.118 302.538 114.214C302.574 114.298 302.592 114.394 302.592 114.502C302.592 114.598 302.568 114.7 302.52 114.808C302.484 114.904 302.442 114.946 302.394 114.934C301.734 114.766 300.924 114.67 299.964 114.646V119.128C299.964 119.62 300.084 119.986 300.324 120.226C300.576 120.466 300.93 120.586 301.386 120.586C301.938 120.586 302.418 120.418 302.826 120.082L302.862 120.064Z" fill="black"/>
<path d="M304.805 226.784C304.829 226.784 304.841 226.82 304.841 226.892C304.841 226.964 304.829 227 304.805 227C304.493 227 304.247 226.994 304.067 226.982L303.077 226.964L301.691 226.982C301.475 226.994 301.181 227 300.809 227C300.785 227 300.773 226.964 300.773 226.892C300.773 226.82 300.785 226.784 300.809 226.784C301.133 226.784 301.367 226.76 301.511 226.712C301.655 226.664 301.727 226.586 301.727 226.478C301.727 226.37 301.673 226.238 301.565 226.082L298.829 221.942L296.543 225.164C296.255 225.572 296.111 225.902 296.111 226.154C296.111 226.574 296.465 226.784 297.173 226.784C297.209 226.784 297.227 226.82 297.227 226.892C297.227 226.964 297.209 227 297.173 227C296.813 227 296.537 226.994 296.345 226.982L295.103 226.964L294.347 226.982C294.215 226.994 293.993 227 293.681 227C293.645 227 293.627 226.964 293.627 226.892C293.627 226.82 293.645 226.784 293.681 226.784C294.509 226.784 295.325 226.238 296.129 225.146L298.667 221.672L295.769 217.28C295.457 216.8 295.145 216.464 294.833 216.272C294.533 216.068 294.173 215.966 293.753 215.966C293.729 215.966 293.717 215.93 293.717 215.858C293.717 215.786 293.729 215.75 293.753 215.75L294.437 215.768C294.749 215.792 294.977 215.804 295.121 215.804C295.529 215.804 296.021 215.792 296.597 215.768L297.533 215.75C297.569 215.75 297.587 215.786 297.587 215.858C297.587 215.93 297.569 215.966 297.533 215.966C297.221 215.966 296.987 215.99 296.831 216.038C296.687 216.086 296.615 216.17 296.615 216.29C296.615 216.386 296.669 216.518 296.777 216.686L299.441 220.7L301.547 217.712C301.871 217.256 302.033 216.884 302.033 216.596C302.033 216.176 301.697 215.966 301.025 215.966C300.989 215.966 300.971 215.93 300.971 215.858C300.971 215.786 300.989 215.75 301.025 215.75L301.835 215.768C302.291 215.792 302.705 215.804 303.077 215.804C303.293 215.804 303.545 215.792 303.833 215.768L304.499 215.75C304.535 215.75 304.553 215.786 304.553 215.858C304.553 215.93 304.535 215.966 304.499 215.966C304.103 215.966 303.689 216.116 303.257 216.416C302.825 216.716 302.393 217.16 301.961 217.748L299.603 220.97L302.609 225.506C302.921 225.974 303.239 226.304 303.563 226.496C303.899 226.688 304.313 226.784 304.805 226.784ZM311.669 225.992C311.705 225.992 311.735 226.016 311.759 226.064C311.795 226.1 311.801 226.136 311.777 226.172C310.961 226.868 310.085 227.216 309.149 227.216C308.441 227.216 307.829 227.054 307.313 226.73C306.797 226.406 306.407 225.986 306.143 225.47C305.891 224.942 305.765 224.372 305.765 223.76C305.765 223.04 305.933 222.386 306.269 221.798C306.617 221.21 307.085 220.748 307.673 220.412C308.261 220.064 308.915 219.89 309.635 219.89C310.283 219.89 310.787 220.052 311.147 220.376C311.507 220.688 311.687 221.12 311.687 221.672C311.687 221.816 311.669 221.924 311.633 221.996C311.609 222.056 311.555 222.086 311.471 222.086L307.043 222.122C306.983 222.446 306.953 222.758 306.953 223.058C306.953 224.102 307.205 224.954 307.709 225.614C308.213 226.262 308.909 226.586 309.797 226.586C310.481 226.586 311.099 226.388 311.651 225.992H311.669ZM309.023 220.25C308.531 220.25 308.117 220.394 307.781 220.682C307.457 220.958 307.229 221.354 307.097 221.87L310.445 221.798C310.445 221.306 310.313 220.928 310.049 220.664C309.797 220.388 309.455 220.25 309.023 220.25ZM315.795 225.47C315.795 225.818 315.831 226.07 315.903 226.226C315.975 226.382 316.107 226.49 316.299 226.55C316.491 226.598 316.803 226.622 317.235 226.622H319.197C319.881 226.622 320.427 226.412 320.835 225.992C321.243 225.572 321.513 224.99 321.645 224.246C321.645 224.21 321.675 224.198 321.735 224.21C321.807 224.21 321.843 224.228 321.843 224.264C321.735 225.26 321.681 226.082 321.681 226.73C321.681 226.826 321.663 226.898 321.627 226.946C321.591 226.982 321.519 227 321.411 227H313.095C313.071 227 313.059 226.964 313.059 226.892C313.059 226.82 313.071 226.784 313.095 226.784C313.551 226.784 313.881 226.754 314.085 226.694C314.301 226.634 314.445 226.52 314.517 226.352C314.589 226.172 314.625 225.902 314.625 225.542V217.208C314.625 216.848 314.589 216.584 314.517 216.416C314.445 216.248 314.301 216.134 314.085 216.074C313.881 216.002 313.551 215.966 313.095 215.966C313.071 215.966 313.059 215.93 313.059 215.858C313.059 215.786 313.071 215.75 313.095 215.75L313.977 215.768C314.481 215.792 314.889 215.804 315.201 215.804C315.537 215.804 315.957 215.792 316.461 215.768L317.325 215.75C317.361 215.75 317.379 215.786 317.379 215.858C317.379 215.93 317.361 215.966 317.325 215.966C316.881 215.966 316.551 216.002 316.335 216.074C316.131 216.134 315.987 216.254 315.903 216.434C315.831 216.602 315.795 216.866 315.795 217.226V225.47ZM329.533 226.028C329.581 226.028 329.611 226.058 329.623 226.118C329.635 226.166 329.617 226.202 329.569 226.226L327.715 227.108C327.667 227.132 327.619 227.144 327.571 227.144C327.415 227.144 327.277 227.042 327.157 226.838C327.037 226.634 326.959 226.352 326.923 225.992L325.807 226.586C325.435 226.778 325.129 226.916 324.889 227C324.649 227.084 324.415 227.126 324.187 227.126C323.815 227.126 323.527 227.03 323.323 226.838C323.131 226.634 323.035 226.382 323.035 226.082C323.035 225.758 323.155 225.5 323.395 225.308C323.647 225.104 324.091 224.894 324.727 224.678L326.905 223.904V222.41C326.905 221.618 326.803 221.066 326.599 220.754C326.395 220.43 326.113 220.268 325.753 220.268C325.345 220.268 325.027 220.412 324.799 220.7C324.571 220.988 324.433 221.336 324.385 221.744C324.337 222.2 324.115 222.428 323.719 222.428C323.527 222.428 323.377 222.38 323.269 222.284C323.161 222.188 323.107 222.056 323.107 221.888C323.107 221.612 323.287 221.318 323.647 221.006C324.007 220.694 324.439 220.43 324.943 220.214C325.459 219.998 325.921 219.89 326.329 219.89C326.809 219.89 327.193 220.058 327.481 220.394C327.769 220.718 327.913 221.21 327.913 221.87V225.056C327.913 225.476 327.967 225.782 328.075 225.974C328.183 226.166 328.363 226.262 328.615 226.262C328.843 226.262 329.137 226.184 329.497 226.028H329.533ZM326.905 225.74V225.632V224.12L325.051 224.822C324.775 224.93 324.577 225.05 324.457 225.182C324.349 225.314 324.295 225.482 324.295 225.686C324.295 225.938 324.367 226.136 324.511 226.28C324.655 226.412 324.841 226.478 325.069 226.478C325.297 226.478 325.543 226.418 325.807 226.298L326.905 225.74ZM333.006 216.074C332.25 216.074 331.68 216.266 331.296 216.65C330.924 217.034 330.654 217.688 330.486 218.612C330.486 218.636 330.45 218.648 330.378 218.648C330.318 218.648 330.288 218.636 330.288 218.612C330.336 218.18 330.39 217.616 330.45 216.92C330.51 216.224 330.54 215.702 330.54 215.354C330.54 215.294 330.57 215.264 330.63 215.264C330.702 215.264 330.738 215.294 330.738 215.354C330.738 215.618 331.062 215.75 331.71 215.75C332.73 215.786 333.936 215.804 335.328 215.804C336.036 215.804 336.786 215.792 337.578 215.768L338.802 215.75C339.234 215.75 339.552 215.72 339.756 215.66C339.972 215.6 340.11 215.48 340.17 215.3C340.182 215.252 340.218 215.228 340.278 215.228C340.338 215.228 340.368 215.252 340.368 215.3C340.332 215.648 340.296 216.176 340.26 216.884C340.224 217.592 340.206 218.168 340.206 218.612C340.206 218.636 340.17 218.648 340.098 218.648C340.026 218.648 339.99 218.636 339.99 218.612C339.954 217.676 339.762 217.022 339.414 216.65C339.066 216.266 338.49 216.074 337.686 216.074C337.146 216.074 336.762 216.098 336.534 216.146C336.306 216.194 336.15 216.296 336.066 216.452C335.982 216.608 335.94 216.872 335.94 217.244V225.542C335.94 225.914 335.982 226.184 336.066 226.352C336.15 226.52 336.312 226.634 336.552 226.694C336.792 226.754 337.17 226.784 337.686 226.784C337.722 226.784 337.74 226.82 337.74 226.892C337.74 226.964 337.722 227 337.686 227C337.29 227 336.972 226.994 336.732 226.982L335.328 226.964L333.978 226.982C333.738 226.994 333.408 227 332.988 227C332.964 227 332.952 226.964 332.952 226.892C332.952 226.82 332.964 226.784 332.988 226.784C333.504 226.784 333.882 226.754 334.122 226.694C334.362 226.634 334.524 226.52 334.608 226.352C334.704 226.172 334.752 225.902 334.752 225.542V217.208C334.752 216.836 334.71 216.578 334.626 216.434C334.542 216.278 334.386 216.182 334.158 216.146C333.93 216.098 333.546 216.074 333.006 216.074ZM346.087 225.992C346.123 225.992 346.153 226.016 346.177 226.064C346.213 226.1 346.219 226.136 346.195 226.172C345.379 226.868 344.503 227.216 343.567 227.216C342.859 227.216 342.247 227.054 341.731 226.73C341.215 226.406 340.825 225.986 340.561 225.47C340.309 224.942 340.183 224.372 340.183 223.76C340.183 223.04 340.351 222.386 340.687 221.798C341.035 221.21 341.503 220.748 342.091 220.412C342.679 220.064 343.333 219.89 344.053 219.89C344.701 219.89 345.205 220.052 345.565 220.376C345.925 220.688 346.105 221.12 346.105 221.672C346.105 221.816 346.087 221.924 346.051 221.996C346.027 222.056 345.973 222.086 345.889 222.086L341.461 222.122C341.401 222.446 341.371 222.758 341.371 223.058C341.371 224.102 341.623 224.954 342.127 225.614C342.631 226.262 343.327 226.586 344.215 226.586C344.899 226.586 345.517 226.388 346.069 225.992H346.087ZM343.441 220.25C342.949 220.25 342.535 220.394 342.199 220.682C341.875 220.958 341.647 221.354 341.515 221.87L344.863 221.798C344.863 221.306 344.731 220.928 344.467 220.664C344.215 220.388 343.873 220.25 343.441 220.25ZM358.313 226.784C358.337 226.784 358.349 226.82 358.349 226.892C358.349 226.964 358.337 227 358.313 227C358.001 227 357.755 226.994 357.575 226.982L356.585 226.964L355.199 226.982C354.983 226.994 354.689 227 354.317 227C354.293 227 354.281 226.964 354.281 226.892C354.281 226.82 354.293 226.784 354.317 226.784C354.641 226.784 354.875 226.76 355.019 226.712C355.163 226.664 355.235 226.586 355.235 226.478C355.235 226.37 355.181 226.238 355.073 226.082L352.337 221.942L350.051 225.164C349.763 225.572 349.619 225.902 349.619 226.154C349.619 226.574 349.973 226.784 350.681 226.784C350.717 226.784 350.735 226.82 350.735 226.892C350.735 226.964 350.717 227 350.681 227C350.321 227 350.045 226.994 349.853 226.982L348.611 226.964L347.855 226.982C347.723 226.994 347.501 227 347.189 227C347.153 227 347.135 226.964 347.135 226.892C347.135 226.82 347.153 226.784 347.189 226.784C348.017 226.784 348.833 226.238 349.637 225.146L352.175 221.672L349.277 217.28C348.965 216.8 348.653 216.464 348.341 216.272C348.041 216.068 347.681 215.966 347.261 215.966C347.237 215.966 347.225 215.93 347.225 215.858C347.225 215.786 347.237 215.75 347.261 215.75L347.945 215.768C348.257 215.792 348.485 215.804 348.629 215.804C349.037 215.804 349.529 215.792 350.105 215.768L351.041 215.75C351.077 215.75 351.095 215.786 351.095 215.858C351.095 215.93 351.077 215.966 351.041 215.966C350.729 215.966 350.495 215.99 350.339 216.038C350.195 216.086 350.123 216.17 350.123 216.29C350.123 216.386 350.177 216.518 350.285 216.686L352.949 220.7L355.055 217.712C355.379 217.256 355.541 216.884 355.541 216.596C355.541 216.176 355.205 215.966 354.533 215.966C354.497 215.966 354.479 215.93 354.479 215.858C354.479 215.786 354.497 215.75 354.533 215.75L355.343 215.768C355.799 215.792 356.213 215.804 356.585 215.804C356.801 215.804 357.053 215.792 357.341 215.768L358.007 215.75C358.043 215.75 358.061 215.786 358.061 215.858C358.061 215.93 358.043 215.966 358.007 215.966C357.611 215.966 357.197 216.116 356.765 216.416C356.333 216.716 355.901 217.16 355.469 217.748L353.111 220.97L356.117 225.506C356.429 225.974 356.747 226.304 357.071 226.496C357.407 226.688 357.821 226.784 358.313 226.784Z" fill="black"/>
<path d="M192.582 226.784C192.606 226.784 192.618 226.82 192.618 226.892C192.618 226.964 192.606 227 192.582 227C192.27 227 192.024 226.994 191.844 226.982L190.854 226.964L189.468 226.982C189.252 226.994 188.958 227 188.586 227C188.562 227 188.55 226.964 188.55 226.892C188.55 226.82 188.562 226.784 188.586 226.784C188.91 226.784 189.144 226.76 189.288 226.712C189.432 226.664 189.504 226.586 189.504 226.478C189.504 226.37 189.45 226.238 189.342 226.082L186.606 221.942L184.32 225.164C184.032 225.572 183.888 225.902 183.888 226.154C183.888 226.574 184.242 226.784 184.95 226.784C184.986 226.784 185.004 226.82 185.004 226.892C185.004 226.964 184.986 227 184.95 227C184.59 227 184.314 226.994 184.122 226.982L182.88 226.964L182.124 226.982C181.992 226.994 181.77 227 181.458 227C181.422 227 181.404 226.964 181.404 226.892C181.404 226.82 181.422 226.784 181.458 226.784C182.286 226.784 183.102 226.238 183.906 225.146L186.444 221.672L183.546 217.28C183.234 216.8 182.922 216.464 182.61 216.272C182.31 216.068 181.95 215.966 181.53 215.966C181.506 215.966 181.494 215.93 181.494 215.858C181.494 215.786 181.506 215.75 181.53 215.75L182.214 215.768C182.526 215.792 182.754 215.804 182.898 215.804C183.306 215.804 183.798 215.792 184.374 215.768L185.31 215.75C185.346 215.75 185.364 215.786 185.364 215.858C185.364 215.93 185.346 215.966 185.31 215.966C184.998 215.966 184.764 215.99 184.608 216.038C184.464 216.086 184.392 216.17 184.392 216.29C184.392 216.386 184.446 216.518 184.554 216.686L187.218 220.7L189.324 217.712C189.648 217.256 189.81 216.884 189.81 216.596C189.81 216.176 189.474 215.966 188.802 215.966C188.766 215.966 188.748 215.93 188.748 215.858C188.748 215.786 188.766 215.75 188.802 215.75L189.612 215.768C190.068 215.792 190.482 215.804 190.854 215.804C191.07 215.804 191.322 215.792 191.61 215.768L192.276 215.75C192.312 215.75 192.33 215.786 192.33 215.858C192.33 215.93 192.312 215.966 192.276 215.966C191.88 215.966 191.466 216.116 191.034 216.416C190.602 216.716 190.17 217.16 189.738 217.748L187.38 220.97L190.386 225.506C190.698 225.974 191.016 226.304 191.34 226.496C191.676 226.688 192.09 226.784 192.582 226.784ZM195.505 217.856C195.505 218.324 195.619 218.732 195.847 219.08C196.075 219.428 196.351 219.722 196.675 219.962C196.999 220.19 197.455 220.484 198.043 220.844C198.667 221.216 199.153 221.528 199.501 221.78C199.849 222.032 200.143 222.356 200.383 222.752C200.635 223.136 200.761 223.598 200.761 224.138C200.761 224.714 200.617 225.236 200.329 225.704C200.041 226.172 199.615 226.544 199.051 226.82C198.499 227.084 197.833 227.216 197.053 227.216C196.129 227.216 195.283 227.006 194.515 226.586C194.455 226.55 194.413 226.508 194.389 226.46C194.377 226.412 194.365 226.34 194.353 226.244L194.119 223.796C194.107 223.748 194.131 223.718 194.191 223.706C194.263 223.694 194.305 223.712 194.317 223.76C194.509 224.624 194.863 225.368 195.379 225.992C195.907 226.616 196.603 226.928 197.467 226.928C198.067 226.928 198.571 226.766 198.979 226.442C199.399 226.106 199.609 225.578 199.609 224.858C199.609 224.318 199.489 223.85 199.249 223.454C199.009 223.058 198.715 222.734 198.367 222.482C198.031 222.218 197.569 221.912 196.981 221.564C196.405 221.216 195.949 220.916 195.613 220.664C195.289 220.412 195.013 220.094 194.785 219.71C194.557 219.326 194.443 218.876 194.443 218.36C194.443 217.76 194.599 217.25 194.911 216.83C195.235 216.398 195.649 216.08 196.153 215.876C196.669 215.66 197.215 215.552 197.791 215.552C198.499 215.552 199.201 215.696 199.897 215.984C200.077 216.044 200.167 216.146 200.167 216.29L200.293 218.36C200.293 218.408 200.263 218.432 200.203 218.432C200.143 218.432 200.107 218.408 200.095 218.36C199.999 217.736 199.741 217.16 199.321 216.632C198.901 216.092 198.295 215.822 197.503 215.822C196.831 215.822 196.327 216.02 195.991 216.416C195.667 216.8 195.505 217.28 195.505 217.856ZM205.066 225.47C205.066 225.818 205.102 226.07 205.174 226.226C205.246 226.382 205.378 226.49 205.57 226.55C205.762 226.598 206.074 226.622 206.506 226.622H208.468C209.152 226.622 209.698 226.412 210.106 225.992C210.514 225.572 210.784 224.99 210.916 224.246C210.916 224.21 210.946 224.198 211.006 224.21C211.078 224.21 211.114 224.228 211.114 224.264C211.006 225.26 210.952 226.082 210.952 226.73C210.952 226.826 210.934 226.898 210.898 226.946C210.862 226.982 210.79 227 210.682 227H202.366C202.342 227 202.33 226.964 202.33 226.892C202.33 226.82 202.342 226.784 202.366 226.784C202.822 226.784 203.152 226.754 203.356 226.694C203.572 226.634 203.716 226.52 203.788 226.352C203.86 226.172 203.896 225.902 203.896 225.542V217.208C203.896 216.848 203.86 216.584 203.788 216.416C203.716 216.248 203.572 216.134 203.356 216.074C203.152 216.002 202.822 215.966 202.366 215.966C202.342 215.966 202.33 215.93 202.33 215.858C202.33 215.786 202.342 215.75 202.366 215.75L203.248 215.768C203.752 215.792 204.16 215.804 204.472 215.804C204.808 215.804 205.228 215.792 205.732 215.768L206.596 215.75C206.632 215.75 206.65 215.786 206.65 215.858C206.65 215.93 206.632 215.966 206.596 215.966C206.152 215.966 205.822 216.002 205.606 216.074C205.402 216.134 205.258 216.254 205.174 216.434C205.102 216.602 205.066 216.866 205.066 217.226V225.47ZM211.91 222.176C211.874 222.188 211.838 222.122 211.802 221.978C211.778 221.822 211.766 221.678 211.766 221.546C211.766 221.438 211.778 221.384 211.802 221.384L217.328 220.538C217.364 220.526 217.394 220.592 217.418 220.736C217.454 220.868 217.472 221 217.472 221.132C217.472 221.264 217.454 221.33 217.418 221.33L211.91 222.176ZM226.116 218.126C226.116 218.162 226.086 218.186 226.026 218.198C225.966 218.198 225.93 218.18 225.918 218.144C225.882 217.508 225.69 217.016 225.342 216.668C224.994 216.308 224.532 216.128 223.956 216.128H222.858C222.45 216.128 222.144 216.158 221.94 216.218C221.736 216.278 221.592 216.386 221.508 216.542C221.436 216.698 221.4 216.926 221.4 217.226V221.168H223.218C223.854 221.168 224.304 221.072 224.568 220.88C224.844 220.676 224.982 220.352 224.982 219.908C224.982 219.884 225.018 219.872 225.09 219.872C225.162 219.872 225.198 219.884 225.198 219.908L225.18 221.366C225.18 221.714 225.186 221.978 225.198 222.158L225.216 223.022C225.216 223.046 225.18 223.058 225.108 223.058C225.036 223.058 225 223.046 225 223.022C225 222.494 224.856 222.116 224.568 221.888C224.292 221.66 223.824 221.546 223.164 221.546H221.4V225.47C221.4 225.854 221.448 226.136 221.544 226.316C221.652 226.484 221.856 226.604 222.156 226.676C222.456 226.748 222.93 226.784 223.578 226.784C223.614 226.784 223.632 226.82 223.632 226.892C223.632 226.964 223.614 227 223.578 227C223.086 227 222.702 226.994 222.426 226.982L220.806 226.964L219.582 226.982C219.366 226.994 219.06 227 218.664 227C218.64 227 218.628 226.964 218.628 226.892C218.628 226.82 218.64 226.784 218.664 226.784C219.12 226.784 219.456 226.754 219.672 226.694C219.888 226.634 220.032 226.52 220.104 226.352C220.188 226.172 220.23 225.902 220.23 225.542V217.208C220.23 216.848 220.188 216.584 220.104 216.416C220.032 216.248 219.888 216.134 219.672 216.074C219.468 216.002 219.138 215.966 218.682 215.966C218.658 215.966 218.646 215.93 218.646 215.858C218.646 215.786 218.658 215.75 218.682 215.75H225.918C226.026 215.75 226.08 215.804 226.08 215.912L226.116 218.126ZM233.654 227.216C232.538 227.216 231.542 226.958 230.666 226.442C229.802 225.914 229.13 225.206 228.65 224.318C228.182 223.418 227.948 222.44 227.948 221.384C227.948 220.148 228.26 219.092 228.884 218.216C229.508 217.328 230.306 216.662 231.278 216.218C232.262 215.774 233.264 215.552 234.284 215.552C235.424 215.552 236.426 215.822 237.29 216.362C238.154 216.89 238.814 217.592 239.27 218.468C239.738 219.344 239.972 220.274 239.972 221.258C239.972 222.35 239.684 223.352 239.108 224.264C238.532 225.176 237.758 225.896 236.786 226.424C235.826 226.952 234.782 227.216 233.654 227.216ZM234.284 226.838C235.1 226.838 235.832 226.64 236.48 226.244C237.14 225.848 237.656 225.266 238.028 224.498C238.412 223.73 238.604 222.818 238.604 221.762C238.604 220.634 238.394 219.632 237.974 218.756C237.554 217.88 236.96 217.196 236.192 216.704C235.436 216.212 234.548 215.966 233.528 215.966C232.208 215.966 231.176 216.392 230.432 217.244C229.688 218.096 229.316 219.266 229.316 220.754C229.316 221.882 229.526 222.914 229.946 223.85C230.366 224.774 230.954 225.506 231.71 226.046C232.466 226.574 233.324 226.838 234.284 226.838Z" fill="black"/>
<path d="M39.597 226.784C39.621 226.784 39.633 226.82 39.633 226.892C39.633 226.964 39.621 227 39.597 227C39.285 227 39.039 226.994 38.859 226.982L37.869 226.964L36.483 226.982C36.267 226.994 35.973 227 35.601 227C35.577 227 35.565 226.964 35.565 226.892C35.565 226.82 35.577 226.784 35.601 226.784C35.925 226.784 36.159 226.76 36.303 226.712C36.447 226.664 36.519 226.586 36.519 226.478C36.519 226.37 36.465 226.238 36.357 226.082L33.621 221.942L31.335 225.164C31.047 225.572 30.903 225.902 30.903 226.154C30.903 226.574 31.257 226.784 31.965 226.784C32.001 226.784 32.019 226.82 32.019 226.892C32.019 226.964 32.001 227 31.965 227C31.605 227 31.329 226.994 31.137 226.982L29.895 226.964L29.139 226.982C29.007 226.994 28.785 227 28.473 227C28.437 227 28.419 226.964 28.419 226.892C28.419 226.82 28.437 226.784 28.473 226.784C29.301 226.784 30.117 226.238 30.921 225.146L33.459 221.672L30.561 217.28C30.249 216.8 29.937 216.464 29.625 216.272C29.325 216.068 28.965 215.966 28.545 215.966C28.521 215.966 28.509 215.93 28.509 215.858C28.509 215.786 28.521 215.75 28.545 215.75L29.229 215.768C29.541 215.792 29.769 215.804 29.913 215.804C30.321 215.804 30.813 215.792 31.389 215.768L32.325 215.75C32.361 215.75 32.379 215.786 32.379 215.858C32.379 215.93 32.361 215.966 32.325 215.966C32.013 215.966 31.779 215.99 31.623 216.038C31.479 216.086 31.407 216.17 31.407 216.29C31.407 216.386 31.461 216.518 31.569 216.686L34.233 220.7L36.339 217.712C36.663 217.256 36.825 216.884 36.825 216.596C36.825 216.176 36.489 215.966 35.817 215.966C35.781 215.966 35.763 215.93 35.763 215.858C35.763 215.786 35.781 215.75 35.817 215.75L36.627 215.768C37.083 215.792 37.497 215.804 37.869 215.804C38.085 215.804 38.337 215.792 38.625 215.768L39.291 215.75C39.327 215.75 39.345 215.786 39.345 215.858C39.345 215.93 39.327 215.966 39.291 215.966C38.895 215.966 38.481 216.116 38.049 216.416C37.617 216.716 37.185 217.16 36.753 217.748L34.395 220.97L37.401 225.506C37.713 225.974 38.031 226.304 38.355 226.496C38.691 226.688 39.105 226.784 39.597 226.784ZM52.9052 226.784C52.9412 226.784 52.9592 226.82 52.9592 226.892C52.9592 226.964 52.9412 227 52.9052 227C52.5332 227 52.2392 226.994 52.0232 226.982L50.7812 226.964L49.4672 226.982C49.2512 226.994 48.9632 227 48.6032 227C48.5672 227 48.5492 226.964 48.5492 226.892C48.5492 226.82 48.5672 226.784 48.6032 226.784C49.0712 226.784 49.4132 226.754 49.6292 226.694C49.8452 226.634 49.9892 226.52 50.0612 226.352C50.1452 226.172 50.1872 225.902 50.1872 225.542V221.33H43.2752V225.542C43.2752 225.902 43.3112 226.172 43.3832 226.352C43.4672 226.52 43.6172 226.634 43.8332 226.694C44.0492 226.754 44.3912 226.784 44.8592 226.784C44.8832 226.784 44.8952 226.82 44.8952 226.892C44.8952 226.964 44.8832 227 44.8592 227C44.4872 227 44.1932 226.994 43.9772 226.982L42.6812 226.964L41.4392 226.982C41.2232 226.994 40.9232 227 40.5392 227C40.5152 227 40.5032 226.964 40.5032 226.892C40.5032 226.82 40.5152 226.784 40.5392 226.784C40.9952 226.784 41.3312 226.754 41.5472 226.694C41.7752 226.634 41.9252 226.52 41.9972 226.352C42.0812 226.172 42.1232 225.902 42.1232 225.542V217.208C42.1232 216.848 42.0812 216.584 41.9972 216.416C41.9252 216.248 41.7812 216.134 41.5652 216.074C41.3492 216.002 41.0132 215.966 40.5572 215.966C40.5332 215.966 40.5212 215.93 40.5212 215.858C40.5212 215.786 40.5332 215.75 40.5572 215.75L41.4752 215.768C41.9792 215.792 42.3812 215.804 42.6812 215.804C43.0292 215.804 43.4672 215.792 43.9952 215.768L44.8592 215.75C44.8832 215.75 44.8952 215.786 44.8952 215.858C44.8952 215.93 44.8832 215.966 44.8592 215.966C44.4032 215.966 44.0612 216.002 43.8332 216.074C43.6172 216.146 43.4672 216.272 43.3832 216.452C43.3112 216.62 43.2752 216.884 43.2752 217.244V220.952H50.1872V217.244C50.1872 216.884 50.1452 216.62 50.0612 216.452C49.9892 216.272 49.8452 216.146 49.6292 216.074C49.4132 216.002 49.0712 215.966 48.6032 215.966C48.5672 215.966 48.5492 215.93 48.5492 215.858C48.5492 215.786 48.5672 215.75 48.6032 215.75L49.4672 215.768C49.9952 215.792 50.4332 215.804 50.7812 215.804C51.1052 215.804 51.5192 215.792 52.0232 215.768L52.9052 215.75C52.9412 215.75 52.9592 215.786 52.9592 215.858C52.9592 215.93 52.9412 215.966 52.9052 215.966C52.4492 215.966 52.1132 216.002 51.8972 216.074C51.6812 216.134 51.5312 216.248 51.4472 216.416C51.3752 216.584 51.3392 216.848 51.3392 217.208V225.542C51.3392 225.902 51.3752 226.172 51.4472 226.352C51.5312 226.52 51.6812 226.634 51.8972 226.694C52.1132 226.754 52.4492 226.784 52.9052 226.784ZM56.9694 216.074C56.2134 216.074 55.6434 216.266 55.2594 216.65C54.8874 217.034 54.6174 217.688 54.4494 218.612C54.4494 218.636 54.4134 218.648 54.3414 218.648C54.2814 218.648 54.2514 218.636 54.2514 218.612C54.2994 218.18 54.3534 217.616 54.4134 216.92C54.4734 216.224 54.5034 215.702 54.5034 215.354C54.5034 215.294 54.5334 215.264 54.5934 215.264C54.6654 215.264 54.7014 215.294 54.7014 215.354C54.7014 215.618 55.0254 215.75 55.6734 215.75C56.6934 215.786 57.8994 215.804 59.2914 215.804C59.9994 215.804 60.7494 215.792 61.5414 215.768L62.7654 215.75C63.1974 215.75 63.5154 215.72 63.7194 215.66C63.9354 215.6 64.0734 215.48 64.1334 215.3C64.1454 215.252 64.1814 215.228 64.2414 215.228C64.3014 215.228 64.3314 215.252 64.3314 215.3C64.2954 215.648 64.2594 216.176 64.2234 216.884C64.1874 217.592 64.1694 218.168 64.1694 218.612C64.1694 218.636 64.1334 218.648 64.0614 218.648C63.9894 218.648 63.9534 218.636 63.9534 218.612C63.9174 217.676 63.7254 217.022 63.3774 216.65C63.0294 216.266 62.4534 216.074 61.6494 216.074C61.1094 216.074 60.7254 216.098 60.4974 216.146C60.2694 216.194 60.1134 216.296 60.0294 216.452C59.9454 216.608 59.9034 216.872 59.9034 217.244V225.542C59.9034 225.914 59.9454 226.184 60.0294 226.352C60.1134 226.52 60.2754 226.634 60.5154 226.694C60.7554 226.754 61.1334 226.784 61.6494 226.784C61.6854 226.784 61.7034 226.82 61.7034 226.892C61.7034 226.964 61.6854 227 61.6494 227C61.2534 227 60.9354 226.994 60.6954 226.982L59.2914 226.964L57.9414 226.982C57.7014 226.994 57.3714 227 56.9514 227C56.9274 227 56.9154 226.964 56.9154 226.892C56.9154 226.82 56.9274 226.784 56.9514 226.784C57.4674 226.784 57.8454 226.754 58.0854 226.694C58.3254 226.634 58.4874 226.52 58.5714 226.352C58.6674 226.172 58.7154 225.902 58.7154 225.542V217.208C58.7154 216.836 58.6734 216.578 58.5894 216.434C58.5054 216.278 58.3494 216.182 58.1214 216.146C57.8934 216.098 57.5094 216.074 56.9694 216.074ZM79.5916 226.784C79.6276 226.784 79.6456 226.82 79.6456 226.892C79.6456 226.964 79.6276 227 79.5916 227C79.2196 227 78.9256 226.994 78.7096 226.982L77.4676 226.964L76.3156 226.982C76.1236 226.994 75.8536 227 75.5056 227C75.4816 227 75.4696 226.964 75.4696 226.892C75.4696 226.82 75.4816 226.784 75.5056 226.784C75.9136 226.784 76.2136 226.754 76.4056 226.694C76.6096 226.622 76.7416 226.502 76.8016 226.334C76.8736 226.166 76.8976 225.902 76.8736 225.542L76.5496 217.352L72.4456 226.874C72.4216 226.922 72.3736 226.946 72.3016 226.946C72.2416 226.946 72.1876 226.922 72.1396 226.874L67.7116 217.46L67.5496 225.038C67.5376 225.674 67.6456 226.124 67.8736 226.388C68.1016 226.652 68.5036 226.784 69.0796 226.784C69.1036 226.784 69.1156 226.82 69.1156 226.892C69.1156 226.964 69.1036 227 69.0796 227C68.7436 227 68.4856 226.994 68.3056 226.982L67.3336 226.964L66.3976 226.982C66.2296 226.994 65.9896 227 65.6776 227C65.6536 227 65.6416 226.964 65.6416 226.892C65.6416 226.82 65.6536 226.784 65.6776 226.784C66.1816 226.784 66.5416 226.652 66.7576 226.388C66.9856 226.112 67.1056 225.662 67.1176 225.038L67.2796 216.686C66.9196 216.206 66.4276 215.966 65.8036 215.966C65.7796 215.966 65.7676 215.93 65.7676 215.858C65.7676 215.786 65.7796 215.75 65.8036 215.75L66.4696 215.768C66.5896 215.78 66.7576 215.786 66.9736 215.786C67.1896 215.786 67.3696 215.78 67.5136 215.768C67.6696 215.756 67.7896 215.75 67.8736 215.75C68.0296 215.75 68.1556 215.81 68.2516 215.93C68.3596 216.038 68.5096 216.29 68.7016 216.686L72.7156 225.146L76.6396 216.2C76.7716 215.9 76.9516 215.75 77.1796 215.75C77.2396 215.75 77.3236 215.756 77.4316 215.768C77.5516 215.78 77.7076 215.786 77.8996 215.786L78.7456 215.768C78.8776 215.756 79.0756 215.75 79.3396 215.75C79.3756 215.75 79.3936 215.786 79.3936 215.858C79.3936 215.93 79.3756 215.966 79.3396 215.966C78.7396 215.966 78.3076 216.056 78.0436 216.236C77.7916 216.404 77.6716 216.728 77.6836 217.208L78.0436 225.542C78.0556 225.914 78.0976 226.184 78.1696 226.352C78.2536 226.52 78.3976 226.634 78.6016 226.694C78.8056 226.754 79.1356 226.784 79.5916 226.784ZM83.3525 225.47C83.3525 225.818 83.3885 226.07 83.4605 226.226C83.5325 226.382 83.6645 226.49 83.8565 226.55C84.0485 226.598 84.3605 226.622 84.7925 226.622H86.7545C87.4385 226.622 87.9845 226.412 88.3925 225.992C88.8005 225.572 89.0705 224.99 89.2025 224.246C89.2025 224.21 89.2325 224.198 89.2925 224.21C89.3645 224.21 89.4005 224.228 89.4005 224.264C89.2925 225.26 89.2385 226.082 89.2385 226.73C89.2385 226.826 89.2205 226.898 89.1845 226.946C89.1485 226.982 89.0765 227 88.9685 227H80.6525C80.6285 227 80.6165 226.964 80.6165 226.892C80.6165 226.82 80.6285 226.784 80.6525 226.784C81.1085 226.784 81.4385 226.754 81.6425 226.694C81.8585 226.634 82.0025 226.52 82.0745 226.352C82.1465 226.172 82.1825 225.902 82.1825 225.542V217.208C82.1825 216.848 82.1465 216.584 82.0745 216.416C82.0025 216.248 81.8585 216.134 81.6425 216.074C81.4385 216.002 81.1085 215.966 80.6525 215.966C80.6285 215.966 80.6165 215.93 80.6165 215.858C80.6165 215.786 80.6285 215.75 80.6525 215.75L81.5345 215.768C82.0385 215.792 82.4465 215.804 82.7585 215.804C83.0945 215.804 83.5145 215.792 84.0185 215.768L84.8825 215.75C84.9185 215.75 84.9365 215.786 84.9365 215.858C84.9365 215.93 84.9185 215.966 84.8825 215.966C84.4385 215.966 84.1085 216.002 83.8925 216.074C83.6885 216.134 83.5445 216.254 83.4605 216.434C83.3885 216.602 83.3525 216.866 83.3525 217.226V225.47ZM101.309 226.028C101.357 226.028 101.387 226.058 101.399 226.118C101.411 226.166 101.393 226.202 101.345 226.226L99.4909 227.108C99.4429 227.132 99.3949 227.144 99.3469 227.144C99.1909 227.144 99.0529 227.042 98.9329 226.838C98.8129 226.634 98.7349 226.352 98.6989 225.992L97.5829 226.586C97.2109 226.778 96.9049 226.916 96.6649 227C96.4249 227.084 96.1909 227.126 95.9629 227.126C95.5909 227.126 95.3029 227.03 95.0989 226.838C94.9069 226.634 94.8109 226.382 94.8109 226.082C94.8109 225.758 94.9309 225.5 95.1709 225.308C95.4229 225.104 95.8669 224.894 96.5029 224.678L98.6809 223.904V222.41C98.6809 221.618 98.5789 221.066 98.3749 220.754C98.1709 220.43 97.8889 220.268 97.5289 220.268C97.1209 220.268 96.8029 220.412 96.5749 220.7C96.3469 220.988 96.2089 221.336 96.1609 221.744C96.1129 222.2 95.8909 222.428 95.4949 222.428C95.3029 222.428 95.1529 222.38 95.0449 222.284C94.9369 222.188 94.8829 222.056 94.8829 221.888C94.8829 221.612 95.0629 221.318 95.4229 221.006C95.7829 220.694 96.2149 220.43 96.7189 220.214C97.2349 219.998 97.6969 219.89 98.1049 219.89C98.5849 219.89 98.9689 220.058 99.2569 220.394C99.5449 220.718 99.6889 221.21 99.6889 221.87V225.056C99.6889 225.476 99.7429 225.782 99.8509 225.974C99.9589 226.166 100.139 226.262 100.391 226.262C100.619 226.262 100.913 226.184 101.273 226.028H101.309ZM98.6809 225.74V225.632V224.12L96.8269 224.822C96.5509 224.93 96.3529 225.05 96.2329 225.182C96.1249 225.314 96.0709 225.482 96.0709 225.686C96.0709 225.938 96.1429 226.136 96.2869 226.28C96.4309 226.412 96.6169 226.478 96.8449 226.478C97.0729 226.478 97.3189 226.418 97.5829 226.298L98.6809 225.74ZM110.29 226.784C110.326 226.784 110.344 226.82 110.344 226.892C110.344 226.964 110.326 227 110.29 227C110.014 227 109.798 226.994 109.642 226.982L108.67 226.964L107.68 226.982C107.524 226.994 107.308 227 107.032 227C106.996 227 106.978 226.964 106.978 226.892C106.978 226.82 106.996 226.784 107.032 226.784C107.356 226.784 107.596 226.754 107.752 226.694C107.908 226.622 108.01 226.502 108.058 226.334C108.118 226.166 108.148 225.902 108.148 225.542V222.626C108.148 221.918 108.01 221.396 107.734 221.06C107.47 220.724 107.056 220.556 106.492 220.556C106.12 220.556 105.742 220.658 105.358 220.862C104.986 221.054 104.644 221.324 104.332 221.672V225.542C104.332 225.902 104.356 226.166 104.404 226.334C104.464 226.502 104.572 226.622 104.728 226.694C104.884 226.754 105.124 226.784 105.448 226.784C105.484 226.784 105.502 226.82 105.502 226.892C105.502 226.964 105.484 227 105.448 227C105.172 227 104.956 226.994 104.8 226.982L103.828 226.964L102.838 226.982C102.682 226.994 102.466 227 102.19 227C102.154 227 102.136 226.964 102.136 226.892C102.136 226.82 102.154 226.784 102.19 226.784C102.514 226.784 102.754 226.754 102.91 226.694C103.066 226.622 103.168 226.502 103.216 226.334C103.276 226.166 103.306 225.902 103.306 225.542V221.978C103.306 221.57 103.258 221.276 103.162 221.096C103.066 220.916 102.904 220.826 102.676 220.826C102.484 220.826 102.16 220.916 101.704 221.096H101.668C101.62 221.096 101.584 221.072 101.56 221.024C101.548 220.964 101.566 220.922 101.614 220.898L103.702 219.908C103.726 219.896 103.762 219.89 103.81 219.89C103.918 219.89 104.032 220.028 104.152 220.304C104.272 220.58 104.332 220.934 104.332 221.366C104.788 220.838 105.238 220.448 105.682 220.196C106.138 219.944 106.606 219.818 107.086 219.818C107.758 219.818 108.274 220.004 108.634 220.376C108.994 220.748 109.174 221.294 109.174 222.014V225.542C109.174 225.902 109.198 226.166 109.246 226.334C109.306 226.502 109.414 226.622 109.57 226.694C109.726 226.754 109.966 226.784 110.29 226.784ZM119.787 225.974C119.835 225.974 119.865 226.004 119.877 226.064C119.901 226.124 119.895 226.166 119.859 226.19L117.879 227.126C117.807 227.15 117.759 227.162 117.735 227.162C117.579 227.162 117.447 227.03 117.339 226.766C117.231 226.502 117.171 226.136 117.159 225.668C116.715 226.136 116.247 226.514 115.755 226.802C115.275 227.09 114.735 227.234 114.135 227.234C113.631 227.234 113.163 227.09 112.731 226.802C112.311 226.514 111.969 226.112 111.705 225.596C111.453 225.068 111.327 224.468 111.327 223.796C111.327 222.944 111.537 222.218 111.957 221.618C112.377 221.018 112.905 220.568 113.541 220.268C114.177 219.968 114.807 219.818 115.431 219.818C116.067 219.818 116.643 219.974 117.159 220.286V216.254C117.159 215.822 117.111 215.51 117.015 215.318C116.931 215.126 116.781 215.03 116.565 215.03C116.409 215.03 116.133 215.114 115.737 215.282H115.701C115.653 215.282 115.617 215.258 115.593 215.21C115.581 215.15 115.593 215.108 115.629 215.084L117.915 213.968C117.939 213.956 117.969 213.95 118.005 213.95C118.029 213.95 118.059 213.968 118.095 214.004C118.143 214.028 118.167 214.058 118.167 214.094V225.02C118.167 225.452 118.215 225.764 118.311 225.956C118.419 226.148 118.587 226.244 118.815 226.244C119.163 226.244 119.475 226.16 119.751 225.992L119.787 225.974ZM114.837 226.586C115.269 226.586 115.671 226.484 116.043 226.28C116.415 226.064 116.787 225.764 117.159 225.38V221.42C116.871 221.024 116.553 220.718 116.205 220.502C115.857 220.286 115.437 220.178 114.945 220.178C114.189 220.178 113.589 220.448 113.145 220.988C112.713 221.516 112.497 222.272 112.497 223.256C112.497 223.916 112.599 224.498 112.803 225.002C113.007 225.506 113.283 225.896 113.631 226.172C113.991 226.448 114.393 226.586 114.837 226.586ZM131.578 215.552C132.154 215.552 132.736 215.606 133.324 215.714C133.912 215.822 134.38 215.978 134.728 216.182C134.836 216.23 134.902 216.284 134.926 216.344C134.962 216.392 134.986 216.482 134.998 216.614L135.196 218.63C135.196 218.666 135.166 218.69 135.106 218.702C135.046 218.702 135.01 218.684 134.998 218.648C134.734 217.724 134.242 217.046 133.522 216.614C132.814 216.17 131.932 215.948 130.876 215.948C129.964 215.948 129.166 216.152 128.482 216.56C127.798 216.956 127.27 217.52 126.898 218.252C126.526 218.984 126.34 219.83 126.34 220.79C126.34 221.906 126.568 222.938 127.024 223.886C127.492 224.834 128.116 225.584 128.896 226.136C129.688 226.688 130.54 226.964 131.452 226.964C132.316 226.964 133.066 226.73 133.702 226.262C134.338 225.782 134.824 225.05 135.16 224.066C135.16 224.03 135.184 224.012 135.232 224.012C135.268 224.012 135.298 224.018 135.322 224.03C135.358 224.042 135.376 224.06 135.376 224.084L135.124 226.118C135.1 226.262 135.07 226.358 135.034 226.406C135.01 226.442 134.944 226.484 134.836 226.532C133.756 226.988 132.616 227.216 131.416 227.216C129.976 227.216 128.77 226.928 127.798 226.352C126.838 225.764 126.13 225.02 125.674 224.12C125.218 223.22 124.99 222.272 124.99 221.276C124.99 220.172 125.296 219.182 125.908 218.306C126.52 217.43 127.33 216.752 128.338 216.272C129.346 215.792 130.426 215.552 131.578 215.552ZM138.759 217.856C138.759 218.324 138.873 218.732 139.101 219.08C139.329 219.428 139.605 219.722 139.929 219.962C140.253 220.19 140.709 220.484 141.297 220.844C141.921 221.216 142.407 221.528 142.755 221.78C143.103 222.032 143.397 222.356 143.637 222.752C143.889 223.136 144.015 223.598 144.015 224.138C144.015 224.714 143.871 225.236 143.583 225.704C143.295 226.172 142.869 226.544 142.305 226.82C141.753 227.084 141.087 227.216 140.307 227.216C139.383 227.216 138.537 227.006 137.769 226.586C137.709 226.55 137.667 226.508 137.643 226.46C137.631 226.412 137.619 226.34 137.607 226.244L137.373 223.796C137.361 223.748 137.385 223.718 137.445 223.706C137.517 223.694 137.559 223.712 137.571 223.76C137.763 224.624 138.117 225.368 138.633 225.992C139.161 226.616 139.857 226.928 140.721 226.928C141.321 226.928 141.825 226.766 142.233 226.442C142.653 226.106 142.863 225.578 142.863 224.858C142.863 224.318 142.743 223.85 142.503 223.454C142.263 223.058 141.969 222.734 141.621 222.482C141.285 222.218 140.823 221.912 140.235 221.564C139.659 221.216 139.203 220.916 138.867 220.664C138.543 220.412 138.267 220.094 138.039 219.71C137.811 219.326 137.697 218.876 137.697 218.36C137.697 217.76 137.853 217.25 138.165 216.83C138.489 216.398 138.903 216.08 139.407 215.876C139.923 215.66 140.469 215.552 141.045 215.552C141.753 215.552 142.455 215.696 143.151 215.984C143.331 216.044 143.421 216.146 143.421 216.29L143.547 218.36C143.547 218.408 143.517 218.432 143.457 218.432C143.397 218.432 143.361 218.408 143.349 218.36C143.253 217.736 142.995 217.16 142.575 216.632C142.155 216.092 141.549 215.822 140.757 215.822C140.085 215.822 139.581 216.02 139.245 216.416C138.921 216.8 138.759 217.28 138.759 217.856ZM147.601 217.856C147.601 218.324 147.715 218.732 147.943 219.08C148.171 219.428 148.447 219.722 148.771 219.962C149.095 220.19 149.551 220.484 150.139 220.844C150.763 221.216 151.249 221.528 151.597 221.78C151.945 222.032 152.239 222.356 152.479 222.752C152.731 223.136 152.857 223.598 152.857 224.138C152.857 224.714 152.713 225.236 152.425 225.704C152.137 226.172 151.711 226.544 151.147 226.82C150.595 227.084 149.929 227.216 149.149 227.216C148.225 227.216 147.379 227.006 146.611 226.586C146.551 226.55 146.509 226.508 146.485 226.46C146.473 226.412 146.461 226.34 146.449 226.244L146.215 223.796C146.203 223.748 146.227 223.718 146.287 223.706C146.359 223.694 146.401 223.712 146.413 223.76C146.605 224.624 146.959 225.368 147.475 225.992C148.003 226.616 148.699 226.928 149.563 226.928C150.163 226.928 150.667 226.766 151.075 226.442C151.495 226.106 151.705 225.578 151.705 224.858C151.705 224.318 151.585 223.85 151.345 223.454C151.105 223.058 150.811 222.734 150.463 222.482C150.127 222.218 149.665 221.912 149.077 221.564C148.501 221.216 148.045 220.916 147.709 220.664C147.385 220.412 147.109 220.094 146.881 219.71C146.653 219.326 146.539 218.876 146.539 218.36C146.539 217.76 146.695 217.25 147.007 216.83C147.331 216.398 147.745 216.08 148.249 215.876C148.765 215.66 149.311 215.552 149.887 215.552C150.595 215.552 151.297 215.696 151.993 215.984C152.173 216.044 152.263 216.146 152.263 216.29L152.389 218.36C152.389 218.408 152.359 218.432 152.299 218.432C152.239 218.432 152.203 218.408 152.191 218.36C152.095 217.736 151.837 217.16 151.417 216.632C150.997 216.092 150.391 215.822 149.599 215.822C148.927 215.822 148.423 216.02 148.087 216.416C147.763 216.8 147.601 217.28 147.601 217.856Z" fill="black"/>
<line x1="204" y1="201.006" x2="204" y2="159.964" stroke="black" stroke-width="3"/>
<line x1="315.001" y1="202.18" x2="269.001" y2="161.119" stroke="black" stroke-width="3"/>
<line x1="143.001" y1="161.119" x2="96.9988" y2="202.177" stroke="black" stroke-width="3"/>
<line x1="204.492" y1="141.508" x2="204.008" y2="47.4714" stroke="black" stroke-width="3" stroke-linecap="round" stroke-dasharray="6 6"/>
<rect x="138" y="74" width="143" height="25" fill="#C4C4C4"/>
<path d="M154.592 91.784C154.628 91.784 154.646 91.82 154.646 91.892C154.646 91.964 154.628 92 154.592 92C154.244 92 153.974 91.994 153.782 91.982L152.702 91.964L151.226 91.982C150.998 91.994 150.68 92 150.272 92C150.236 92 150.218 91.964 150.218 91.892C150.218 91.82 150.236 91.784 150.272 91.784C150.668 91.784 150.866 91.682 150.866 91.478C150.866 91.37 150.812 91.238 150.704 91.082L148.238 87.266L146.69 89.48C146.222 90.14 145.988 90.674 145.988 91.082C145.988 91.55 146.3 91.784 146.924 91.784C146.948 91.784 146.96 91.82 146.96 91.892C146.96 91.964 146.948 92 146.924 92C146.528 92 146.228 91.994 146.024 91.982L144.692 91.964L143.846 91.982C143.69 91.994 143.438 92 143.09 92C143.054 92 143.036 91.964 143.036 91.892C143.036 91.82 143.054 91.784 143.09 91.784C143.462 91.784 143.918 91.586 144.458 91.19C144.998 90.794 145.562 90.188 146.15 89.372L147.986 86.888L145.106 82.406C144.782 81.89 144.47 81.524 144.17 81.308C143.87 81.08 143.552 80.966 143.216 80.966C143.18 80.966 143.162 80.93 143.162 80.858C143.162 80.786 143.18 80.75 143.216 80.75L143.99 80.768C144.326 80.792 144.578 80.804 144.746 80.804C145.166 80.804 145.688 80.792 146.312 80.768L147.338 80.75C147.362 80.75 147.374 80.786 147.374 80.858C147.374 80.93 147.362 80.966 147.338 80.966C146.93 80.966 146.726 81.068 146.726 81.272C146.726 81.368 146.78 81.506 146.888 81.686L149.264 85.34L150.704 83.288C151.172 82.616 151.406 82.076 151.406 81.668C151.406 81.2 151.094 80.966 150.47 80.966C150.446 80.966 150.434 80.93 150.434 80.858C150.434 80.786 150.446 80.75 150.47 80.75L151.37 80.768C151.85 80.792 152.294 80.804 152.702 80.804C152.954 80.804 153.236 80.792 153.548 80.768L154.304 80.75C154.34 80.75 154.358 80.786 154.358 80.858C154.358 80.93 154.34 80.966 154.304 80.966C153.92 80.966 153.458 81.17 152.918 81.578C152.39 81.974 151.826 82.58 151.226 83.396L149.516 85.736L152.594 90.506C152.894 90.95 153.2 91.274 153.512 91.478C153.824 91.682 154.184 91.784 154.592 91.784ZM158.488 90.47C158.488 90.782 158.512 91.01 158.56 91.154C158.608 91.286 158.698 91.376 158.83 91.424C158.974 91.472 159.202 91.496 159.514 91.496H160.126C161.062 91.496 161.872 91.25 162.556 90.758C163.24 90.254 163.696 89.576 163.924 88.724C163.924 88.7 163.948 88.688 163.996 88.688C164.02 88.688 164.044 88.7 164.068 88.724C164.104 88.736 164.122 88.748 164.122 88.76C164.014 89.948 163.96 90.938 163.96 91.73C163.96 91.826 163.936 91.898 163.888 91.946C163.852 91.982 163.786 92 163.69 92H155.194C155.17 92 155.158 91.964 155.158 91.892C155.158 91.82 155.17 91.784 155.194 91.784C155.578 91.784 155.854 91.754 156.022 91.694C156.202 91.634 156.322 91.52 156.382 91.352C156.454 91.172 156.49 90.902 156.49 90.542V82.208C156.49 81.848 156.454 81.584 156.382 81.416C156.322 81.248 156.202 81.134 156.022 81.074C155.842 81.002 155.566 80.966 155.194 80.966C155.17 80.966 155.158 80.93 155.158 80.858C155.158 80.786 155.17 80.75 155.194 80.75L156.112 80.768C156.664 80.792 157.12 80.804 157.48 80.804C157.84 80.804 158.296 80.792 158.848 80.768L159.766 80.75C159.802 80.75 159.82 80.786 159.82 80.858C159.82 80.93 159.802 80.966 159.766 80.966C159.394 80.966 159.118 81.002 158.938 81.074C158.758 81.134 158.638 81.254 158.578 81.434C158.518 81.602 158.488 81.866 158.488 82.226V90.47ZM165.165 92C165.129 92 165.111 91.964 165.111 91.892C165.111 91.82 165.129 91.784 165.165 91.784C165.537 91.784 165.789 91.7 165.921 91.532C166.053 91.352 166.119 91.022 166.119 90.542V87.32C166.119 86.912 166.077 86.618 165.993 86.438C165.909 86.258 165.771 86.168 165.579 86.168C165.423 86.168 165.201 86.234 164.913 86.366H164.895C164.847 86.366 164.811 86.336 164.787 86.276C164.763 86.204 164.769 86.162 164.805 86.15L167.523 84.89L167.577 84.872C167.637 84.872 167.697 84.902 167.757 84.962C167.817 85.022 167.847 85.076 167.847 85.124V85.52C167.823 86 167.811 86.588 167.811 87.284V90.542C167.811 91.022 167.877 91.352 168.009 91.532C168.153 91.7 168.411 91.784 168.783 91.784C168.819 91.784 168.837 91.82 168.837 91.892C168.837 91.964 168.819 92 168.783 92C168.471 92 168.225 91.994 168.045 91.982L166.965 91.964L165.903 91.982C165.723 91.994 165.477 92 165.165 92ZM166.893 83.09C166.545 83.09 166.275 82.994 166.083 82.802C165.891 82.61 165.795 82.34 165.795 81.992C165.795 81.68 165.891 81.434 166.083 81.254C166.287 81.062 166.557 80.966 166.893 80.966C167.229 80.966 167.487 81.056 167.667 81.236C167.847 81.416 167.937 81.668 167.937 81.992C167.937 82.34 167.847 82.61 167.667 82.802C167.487 82.994 167.229 83.09 166.893 83.09ZM178.353 91.784C178.389 91.784 178.407 91.82 178.407 91.892C178.407 91.964 178.389 92 178.353 92C178.041 92 177.795 91.994 177.615 91.982L176.535 91.964L175.491 91.982C175.299 91.994 175.047 92 174.735 92C174.699 92 174.681 91.964 174.681 91.892C174.681 91.82 174.699 91.784 174.735 91.784C175.107 91.784 175.359 91.7 175.491 91.532C175.623 91.352 175.689 91.022 175.689 90.542V87.95C175.689 87.302 175.569 86.822 175.329 86.51C175.101 86.198 174.735 86.042 174.231 86.042C173.943 86.042 173.643 86.102 173.331 86.222C173.031 86.342 172.767 86.504 172.539 86.708V90.542C172.539 91.022 172.605 91.352 172.737 91.532C172.881 91.7 173.139 91.784 173.511 91.784C173.547 91.784 173.565 91.82 173.565 91.892C173.565 91.964 173.547 92 173.511 92C173.199 92 172.953 91.994 172.773 91.982L171.693 91.964L170.631 91.982C170.451 91.994 170.205 92 169.893 92C169.857 92 169.839 91.964 169.839 91.892C169.839 91.82 169.857 91.784 169.893 91.784C170.265 91.784 170.517 91.7 170.649 91.532C170.781 91.352 170.847 91.022 170.847 90.542V87.158C170.847 86.786 170.799 86.516 170.703 86.348C170.619 86.168 170.481 86.078 170.289 86.078C170.085 86.078 169.797 86.162 169.425 86.33H169.389C169.353 86.33 169.323 86.3 169.299 86.24C169.287 86.18 169.293 86.144 169.317 86.132L171.819 84.908C171.891 84.884 171.933 84.872 171.945 84.872C172.077 84.872 172.203 85.004 172.323 85.268C172.443 85.52 172.515 85.868 172.539 86.312C173.367 85.328 174.279 84.836 175.275 84.836C175.923 84.836 176.433 85.046 176.805 85.466C177.189 85.874 177.381 86.414 177.381 87.086V90.542C177.381 91.022 177.447 91.352 177.579 91.532C177.723 91.7 177.981 91.784 178.353 91.784ZM183.274 91.208C183.982 91.328 184.546 91.448 184.966 91.568C185.386 91.688 185.746 91.892 186.046 92.18C186.358 92.468 186.514 92.876 186.514 93.404C186.514 94.052 186.304 94.658 185.884 95.222C185.476 95.786 184.918 96.236 184.21 96.572C183.514 96.908 182.758 97.076 181.942 97.076C181.054 97.076 180.328 96.884 179.764 96.5C179.2 96.116 178.918 95.618 178.918 95.006C178.918 94.598 179.05 94.178 179.314 93.746C179.578 93.314 180.07 92.84 180.79 92.324C180.43 92.216 180.148 92.06 179.944 91.856C179.752 91.652 179.656 91.376 179.656 91.028C179.656 90.728 179.77 90.422 179.998 90.11C180.238 89.786 180.604 89.486 181.096 89.21C180.568 89.03 180.16 88.754 179.872 88.382C179.584 88.01 179.44 87.608 179.44 87.176C179.44 86.696 179.596 86.288 179.908 85.952C180.22 85.616 180.616 85.364 181.096 85.196C181.576 85.016 182.056 84.926 182.536 84.926C183.34 84.926 184.006 85.124 184.534 85.52C184.858 85.304 185.176 85.142 185.488 85.034C185.8 84.926 186.136 84.872 186.496 84.872C186.592 84.872 186.64 85.04 186.64 85.376C186.64 85.544 186.616 85.73 186.568 85.934C186.52 86.138 186.478 86.222 186.442 86.186C185.938 85.982 185.488 85.88 185.092 85.88H184.948C185.26 86.252 185.416 86.672 185.416 87.14C185.416 87.596 185.26 87.998 184.948 88.346C184.648 88.682 184.258 88.94 183.778 89.12C183.298 89.3 182.806 89.39 182.302 89.39C181.978 89.39 181.672 89.354 181.384 89.282C181.144 89.474 181.024 89.72 181.024 90.02C181.024 90.284 181.12 90.488 181.312 90.632C181.516 90.776 181.762 90.884 182.05 90.956C182.338 91.028 182.746 91.112 183.274 91.208ZM181.942 85.268C181.438 85.268 181.186 85.742 181.186 86.69C181.186 87.314 181.336 87.866 181.636 88.346C181.936 88.826 182.32 89.066 182.788 89.066C183.016 89.066 183.214 88.946 183.382 88.706C183.562 88.466 183.652 88.088 183.652 87.572C183.652 86.924 183.484 86.378 183.148 85.934C182.812 85.49 182.41 85.268 181.942 85.268ZM182.896 96.5C183.52 96.5 184.024 96.314 184.408 95.942C184.804 95.582 185.002 95.096 185.002 94.484C185.002 94.028 184.87 93.674 184.606 93.422C184.354 93.182 184.042 93.008 183.67 92.9C183.31 92.804 182.812 92.708 182.176 92.612L181.204 92.45C180.868 92.846 180.7 93.41 180.7 94.142C180.7 94.898 180.904 95.48 181.312 95.888C181.72 96.296 182.248 96.5 182.896 96.5ZM190.675 90.47C190.675 90.854 190.717 91.136 190.801 91.316C190.885 91.484 191.041 91.604 191.269 91.676C191.509 91.748 191.887 91.784 192.403 91.784C192.439 91.784 192.457 91.82 192.457 91.892C192.457 91.964 192.439 92 192.403 92C191.911 92 191.527 91.994 191.251 91.982L189.685 91.964L188.371 91.982C188.131 91.994 187.807 92 187.399 92C187.363 92 187.345 91.964 187.345 91.892C187.345 91.82 187.363 91.784 187.399 91.784C187.783 91.784 188.059 91.754 188.227 91.694C188.407 91.634 188.527 91.52 188.587 91.352C188.647 91.172 188.677 90.902 188.677 90.542V82.208C188.677 81.848 188.647 81.584 188.587 81.416C188.527 81.248 188.407 81.134 188.227 81.074C188.047 81.002 187.771 80.966 187.399 80.966C187.363 80.966 187.345 80.93 187.345 80.858C187.345 80.786 187.363 80.75 187.399 80.75L188.353 80.768C188.905 80.792 189.343 80.804 189.667 80.804C189.955 80.804 190.297 80.786 190.693 80.75C190.849 80.738 191.047 80.726 191.287 80.714C191.527 80.702 191.803 80.696 192.115 80.696C193.339 80.696 194.305 80.954 195.013 81.47C195.721 81.974 196.075 82.76 196.075 83.828C196.075 84.572 195.883 85.202 195.499 85.718C195.115 86.234 194.617 86.624 194.005 86.888C193.405 87.152 192.787 87.284 192.151 87.284C191.827 87.284 191.545 87.254 191.305 87.194C191.281 87.194 191.269 87.164 191.269 87.104C191.269 87.068 191.275 87.032 191.287 86.996C191.311 86.96 191.335 86.948 191.359 86.96C191.539 87.008 191.743 87.032 191.971 87.032C192.523 87.032 192.979 86.774 193.339 86.258C193.711 85.742 193.897 85.01 193.897 84.062C193.897 83.114 193.693 82.382 193.285 81.866C192.889 81.35 192.307 81.092 191.539 81.092C191.203 81.092 190.975 81.17 190.855 81.326C190.735 81.482 190.675 81.788 190.675 82.244V90.47ZM203.751 91.028C203.799 91.028 203.829 91.058 203.841 91.118C203.865 91.166 203.853 91.202 203.805 91.226L201.951 92.108C201.903 92.132 201.843 92.144 201.771 92.144C201.591 92.144 201.411 92.054 201.231 91.874C201.063 91.694 200.943 91.448 200.871 91.136L200.043 91.586C199.731 91.742 199.407 91.874 199.071 91.982C198.735 92.078 198.435 92.126 198.171 92.126C197.787 92.126 197.481 92.03 197.253 91.838C197.037 91.634 196.929 91.346 196.929 90.974C196.929 90.698 196.995 90.476 197.127 90.308C197.271 90.14 197.469 90.002 197.721 89.894C197.985 89.774 198.399 89.618 198.963 89.426L200.799 88.832V87.41C200.799 86.69 200.727 86.162 200.583 85.826C200.439 85.478 200.205 85.304 199.881 85.304C199.593 85.304 199.365 85.412 199.197 85.628C199.029 85.844 198.927 86.198 198.891 86.69C198.819 87.362 198.465 87.698 197.829 87.698C197.265 87.698 196.983 87.452 196.983 86.96C196.983 86.636 197.187 86.312 197.595 85.988C198.003 85.664 198.495 85.4 199.071 85.196C199.647 84.992 200.151 84.89 200.583 84.89C201.147 84.89 201.603 85.058 201.951 85.394C202.311 85.73 202.491 86.222 202.491 86.87V90.056C202.491 90.404 202.551 90.674 202.671 90.866C202.803 91.058 202.983 91.154 203.211 91.154C203.379 91.154 203.553 91.112 203.733 91.028H203.751ZM200.817 90.848C200.805 90.764 200.799 90.638 200.799 90.47V89.138L199.809 89.498C199.485 89.618 199.251 89.75 199.107 89.894C198.975 90.038 198.909 90.212 198.909 90.416C198.909 90.668 198.981 90.866 199.125 91.01C199.269 91.154 199.449 91.226 199.665 91.226C199.929 91.226 200.235 91.142 200.583 90.974L200.817 90.848ZM208.483 92.234C207.895 92.234 207.379 92.168 206.935 92.036V95.492C206.935 95.852 206.971 96.116 207.043 96.284C207.127 96.452 207.277 96.566 207.493 96.626C207.721 96.698 208.069 96.734 208.537 96.734C208.573 96.734 208.591 96.77 208.591 96.842C208.591 96.914 208.573 96.95 208.537 96.95C208.093 96.95 207.745 96.944 207.493 96.932L206.071 96.914L205.009 96.932C204.829 96.944 204.577 96.95 204.253 96.95C204.217 96.95 204.199 96.914 204.199 96.842C204.199 96.77 204.217 96.734 204.253 96.734C204.541 96.734 204.751 96.698 204.883 96.626C205.027 96.566 205.123 96.452 205.171 96.284C205.231 96.116 205.261 95.852 205.261 95.492V87.158C205.261 86.774 205.219 86.498 205.135 86.33C205.051 86.162 204.901 86.078 204.685 86.078C204.493 86.078 204.217 86.162 203.857 86.33H203.821C203.785 86.33 203.755 86.3 203.731 86.24C203.695 86.18 203.689 86.144 203.713 86.132L206.269 84.89C206.293 84.878 206.323 84.872 206.359 84.872C206.479 84.872 206.587 84.974 206.683 85.178C206.791 85.382 206.863 85.658 206.899 86.006C207.775 85.214 208.675 84.818 209.599 84.818C210.103 84.818 210.571 84.95 211.003 85.214C211.447 85.478 211.801 85.862 212.065 86.366C212.329 86.87 212.461 87.458 212.461 88.13C212.461 89.09 212.263 89.882 211.867 90.506C211.471 91.118 210.967 91.562 210.355 91.838C209.755 92.102 209.131 92.234 208.483 92.234ZM208.411 85.826C207.871 85.826 207.379 86.018 206.935 86.402V86.546V90.884C207.199 91.184 207.475 91.412 207.763 91.568C208.051 91.712 208.405 91.784 208.825 91.784C210.037 91.784 210.643 90.752 210.643 88.688C210.643 87.776 210.427 87.074 209.995 86.582C209.575 86.078 209.047 85.826 208.411 85.826ZM219.998 90.812C220.022 90.812 220.046 90.836 220.07 90.884C220.106 90.932 220.112 90.968 220.088 90.992C219.644 91.424 219.194 91.736 218.738 91.928C218.282 92.12 217.784 92.216 217.244 92.216C216.488 92.216 215.834 92.06 215.282 91.748C214.73 91.424 214.31 90.998 214.022 90.47C213.734 89.93 213.59 89.354 213.59 88.742C213.59 88.046 213.77 87.404 214.13 86.816C214.49 86.216 214.982 85.748 215.606 85.412C216.23 85.064 216.926 84.89 217.694 84.89C218.438 84.89 219.008 85.052 219.404 85.376C219.8 85.688 219.998 86.12 219.998 86.672C219.998 87.02 219.932 87.194 219.8 87.194H218.702L215.462 87.23C215.426 87.458 215.408 87.71 215.408 87.986C215.408 89.018 215.648 89.834 216.128 90.434C216.62 91.034 217.292 91.334 218.144 91.334C218.444 91.334 218.756 91.292 219.08 91.208C219.404 91.124 219.698 90.998 219.962 90.83L219.998 90.812ZM217.028 85.25C216.668 85.25 216.356 85.394 216.092 85.682C215.828 85.97 215.636 86.366 215.516 86.87L218.072 86.816C218.036 85.772 217.688 85.25 217.028 85.25ZM225.919 84.872C226.195 84.872 226.459 84.974 226.711 85.178C226.975 85.37 227.107 85.604 227.107 85.88C227.107 86.132 227.029 86.342 226.873 86.51C226.717 86.666 226.513 86.744 226.261 86.744C226.081 86.744 225.931 86.708 225.811 86.636C225.703 86.564 225.589 86.456 225.469 86.312C225.361 86.192 225.265 86.108 225.181 86.06C225.109 86 225.019 85.97 224.911 85.97C224.791 85.97 224.659 86.018 224.515 86.114C224.383 86.198 224.173 86.384 223.885 86.672V90.542C223.885 91.022 223.999 91.352 224.227 91.532C224.455 91.7 224.875 91.784 225.487 91.784C225.535 91.784 225.559 91.82 225.559 91.892C225.559 91.964 225.535 92 225.487 92C225.067 92 224.737 91.994 224.497 91.982L223.039 91.964L221.977 91.982C221.797 91.994 221.551 92 221.239 92C221.203 92 221.185 91.964 221.185 91.892C221.185 91.82 221.203 91.784 221.239 91.784C221.611 91.784 221.863 91.7 221.995 91.532C222.127 91.352 222.193 91.022 222.193 90.542V87.158C222.193 86.786 222.145 86.516 222.049 86.348C221.965 86.168 221.827 86.078 221.635 86.078C221.431 86.078 221.143 86.162 220.771 86.33H220.735C220.699 86.33 220.669 86.3 220.645 86.24C220.633 86.18 220.639 86.144 220.663 86.132L223.165 84.908C223.237 84.884 223.279 84.872 223.291 84.872C223.423 84.872 223.543 84.998 223.651 85.25C223.771 85.49 223.843 85.82 223.867 86.24C224.359 85.736 224.761 85.382 225.073 85.178C225.397 84.974 225.679 84.872 225.919 84.872ZM243.168 91.784C243.204 91.784 243.222 91.82 243.222 91.892C243.222 91.964 243.204 92 243.168 92C242.82 92 242.55 91.994 242.358 91.982L241.278 91.964L239.802 91.982C239.574 91.994 239.256 92 238.848 92C238.812 92 238.794 91.964 238.794 91.892C238.794 91.82 238.812 91.784 238.848 91.784C239.244 91.784 239.442 91.682 239.442 91.478C239.442 91.37 239.388 91.238 239.28 91.082L236.814 87.266L235.266 89.48C234.798 90.14 234.564 90.674 234.564 91.082C234.564 91.55 234.876 91.784 235.5 91.784C235.524 91.784 235.536 91.82 235.536 91.892C235.536 91.964 235.524 92 235.5 92C235.104 92 234.804 91.994 234.6 91.982L233.268 91.964L232.422 91.982C232.266 91.994 232.014 92 231.666 92C231.63 92 231.612 91.964 231.612 91.892C231.612 91.82 231.63 91.784 231.666 91.784C232.038 91.784 232.494 91.586 233.034 91.19C233.574 90.794 234.138 90.188 234.726 89.372L236.562 86.888L233.682 82.406C233.358 81.89 233.046 81.524 232.746 81.308C232.446 81.08 232.128 80.966 231.792 80.966C231.756 80.966 231.738 80.93 231.738 80.858C231.738 80.786 231.756 80.75 231.792 80.75L232.566 80.768C232.902 80.792 233.154 80.804 233.322 80.804C233.742 80.804 234.264 80.792 234.888 80.768L235.914 80.75C235.938 80.75 235.95 80.786 235.95 80.858C235.95 80.93 235.938 80.966 235.914 80.966C235.506 80.966 235.302 81.068 235.302 81.272C235.302 81.368 235.356 81.506 235.464 81.686L237.84 85.34L239.28 83.288C239.748 82.616 239.982 82.076 239.982 81.668C239.982 81.2 239.67 80.966 239.046 80.966C239.022 80.966 239.01 80.93 239.01 80.858C239.01 80.786 239.022 80.75 239.046 80.75L239.946 80.768C240.426 80.792 240.87 80.804 241.278 80.804C241.53 80.804 241.812 80.792 242.124 80.768L242.88 80.75C242.916 80.75 242.934 80.786 242.934 80.858C242.934 80.93 242.916 80.966 242.88 80.966C242.496 80.966 242.034 81.17 241.494 81.578C240.966 81.974 240.402 82.58 239.802 83.396L238.092 85.736L241.17 90.506C241.47 90.95 241.776 91.274 242.088 91.478C242.4 91.682 242.76 91.784 243.168 91.784ZM258.224 91.784C258.248 91.784 258.26 91.82 258.26 91.892C258.26 91.964 258.248 92 258.224 92C257.816 92 257.492 91.994 257.252 91.982L255.92 91.964L254.57 91.982C254.342 91.994 254.03 92 253.634 92C253.598 92 253.58 91.964 253.58 91.892C253.58 91.82 253.598 91.784 253.634 91.784C254.138 91.784 254.48 91.724 254.66 91.604C254.84 91.484 254.93 91.232 254.93 90.848L254.912 90.542L254.534 83.18L250.826 91.874C250.802 91.922 250.754 91.946 250.682 91.946C250.61 91.946 250.562 91.922 250.538 91.874L245.984 83.216L245.84 89.714C245.828 90.362 245.954 90.872 246.218 91.244C246.494 91.604 246.878 91.784 247.37 91.784C247.406 91.784 247.424 91.82 247.424 91.892C247.424 91.964 247.406 92 247.37 92C247.046 92 246.794 91.994 246.614 91.982L245.624 91.964L244.49 91.982C244.298 91.994 244.04 92 243.716 92C243.68 92 243.662 91.964 243.662 91.892C243.662 91.82 243.68 91.784 243.716 91.784C244.208 91.784 244.598 91.598 244.886 91.226C245.174 90.854 245.324 90.35 245.336 89.714L245.498 82.262L245.48 82.244C245.24 81.8 244.988 81.476 244.724 81.272C244.472 81.068 244.178 80.966 243.842 80.966C243.806 80.966 243.788 80.93 243.788 80.858C243.788 80.786 243.806 80.75 243.842 80.75L244.688 80.768C244.856 80.78 245.072 80.786 245.336 80.786L246.29 80.768C246.398 80.756 246.536 80.75 246.704 80.75C246.86 80.75 246.98 80.804 247.064 80.912C247.148 81.02 247.304 81.278 247.532 81.686L251.456 89.048L254.876 81.2C254.948 81.032 255.02 80.918 255.092 80.858C255.176 80.786 255.284 80.75 255.416 80.75C255.524 80.75 255.644 80.756 255.776 80.768C255.92 80.78 256.082 80.786 256.262 80.786L257.324 80.768C257.492 80.756 257.732 80.75 258.044 80.75C258.08 80.75 258.098 80.786 258.098 80.858C258.098 80.93 258.08 80.966 258.044 80.966C257.48 80.966 257.072 81.08 256.82 81.308C256.568 81.536 256.454 81.89 256.478 82.37L256.91 90.542C256.934 90.914 256.976 91.184 257.036 91.352C257.108 91.52 257.228 91.634 257.396 91.694C257.576 91.754 257.852 91.784 258.224 91.784ZM262.498 90.47C262.498 90.782 262.522 91.01 262.57 91.154C262.618 91.286 262.708 91.376 262.84 91.424C262.984 91.472 263.212 91.496 263.524 91.496H264.136C265.072 91.496 265.882 91.25 266.566 90.758C267.25 90.254 267.706 89.576 267.934 88.724C267.934 88.7 267.958 88.688 268.006 88.688C268.03 88.688 268.054 88.7 268.078 88.724C268.114 88.736 268.132 88.748 268.132 88.76C268.024 89.948 267.97 90.938 267.97 91.73C267.97 91.826 267.946 91.898 267.898 91.946C267.862 91.982 267.796 92 267.7 92H259.204C259.18 92 259.168 91.964 259.168 91.892C259.168 91.82 259.18 91.784 259.204 91.784C259.588 91.784 259.864 91.754 260.032 91.694C260.212 91.634 260.332 91.52 260.392 91.352C260.464 91.172 260.5 90.902 260.5 90.542V82.208C260.5 81.848 260.464 81.584 260.392 81.416C260.332 81.248 260.212 81.134 260.032 81.074C259.852 81.002 259.576 80.966 259.204 80.966C259.18 80.966 259.168 80.93 259.168 80.858C259.168 80.786 259.18 80.75 259.204 80.75L260.122 80.768C260.674 80.792 261.13 80.804 261.49 80.804C261.85 80.804 262.306 80.792 262.858 80.768L263.776 80.75C263.812 80.75 263.83 80.786 263.83 80.858C263.83 80.93 263.812 80.966 263.776 80.966C263.404 80.966 263.128 81.002 262.948 81.074C262.768 81.134 262.648 81.254 262.588 81.434C262.528 81.602 262.498 81.866 262.498 82.226V90.47Z" fill="black"/>
</svg>
